<svg xmlns="http://www.w3.org/2000/svg" width="379" height="1479" viewBox="0 0 379 1479" font-family="sans-serif" font-size="11">
<rect width="100%" height="100%" fill="#f1f2f5"/>
<rect x="24" y="42" width="99.7" height="86.1" fill="#fff" fill-opacity="0.6" stroke="#7a8599" stroke-width="1"/>
<rect x="139.7" y="42" width="99.7" height="86.1" fill="#fff" fill-opacity="0.6" stroke="#7a8599" stroke-width="1"/>
<rect x="255.3" y="42" width="99.7" height="86.1" fill="#fff" fill-opacity="0.6" stroke="#7a8599" stroke-width="1"/>
<rect x="24" y="144.1" width="99.7" height="86.1" fill="#fff" fill-opacity="0.6" stroke="#7a8599" stroke-width="1"/>
<rect x="139.7" y="144.1" width="99.7" height="86.1" fill="#fff" fill-opacity="0.6" stroke="#7a8599" stroke-width="1"/>
<rect x="255.3" y="144.1" width="99.7" height="86.1" fill="#fff" fill-opacity="0.6" stroke="#7a8599" stroke-width="1"/>
<rect x="24" y="246.1" width="99.7" height="86.1" fill="#fff" fill-opacity="0.6" stroke="#7a8599" stroke-width="1"/>
<rect x="139.7" y="246.1" width="99.7" height="86.1" fill="#fff" fill-opacity="0.6" stroke="#7a8599" stroke-width="1"/>
<rect x="255.3" y="246.1" width="99.7" height="86.1" fill="#fff" fill-opacity="0.6" stroke="#7a8599" stroke-width="1"/>
<rect x="24" y="348.2" width="99.7" height="86.1" fill="#fff" fill-opacity="0.6" stroke="#7a8599" stroke-width="1"/>
<rect x="139.7" y="348.2" width="99.7" height="86.1" fill="#fff" fill-opacity="0.6" stroke="#7a8599" stroke-width="1"/>
<rect x="255.3" y="348.2" width="99.7" height="86.1" fill="#fff" fill-opacity="0.6" stroke="#7a8599" stroke-width="1"/>
<rect x="24" y="450.3" width="99.7" height="86.1" fill="#fff" fill-opacity="0.6" stroke="#7a8599" stroke-width="1"/>
<rect x="139.7" y="450.3" width="99.7" height="86.1" fill="#fff" fill-opacity="0.6" stroke="#7a8599" stroke-width="1"/>
<rect x="255.3" y="450.3" width="99.7" height="86.1" fill="#fff" fill-opacity="0.6" stroke="#7a8599" stroke-width="1"/>
<rect x="24" y="552.4" width="99.7" height="86.1" fill="#fff" fill-opacity="0.6" stroke="#7a8599" stroke-width="1"/>
<rect x="139.7" y="552.4" width="99.7" height="86.1" fill="#fff" fill-opacity="0.6" stroke="#7a8599" stroke-width="1"/>
<rect x="255.3" y="552.4" width="99.7" height="86.1" fill="#fff" fill-opacity="0.6" stroke="#7a8599" stroke-width="1"/>
<rect x="24" y="654.4" width="99.7" height="86.1" fill="#fff" fill-opacity="0.6" stroke="#7a8599" stroke-width="1"/>
<rect x="139.7" y="654.4" width="99.7" height="86.1" fill="#fff" fill-opacity="0.6" stroke="#7a8599" stroke-width="1"/>
<rect x="255.3" y="654.4" width="99.7" height="86.1" fill="#fff" fill-opacity="0.6" stroke="#7a8599" stroke-width="1"/>
<rect x="24" y="756.5" width="99.7" height="86.1" fill="#fff" fill-opacity="0.6" stroke="#7a8599" stroke-width="1"/>
<rect x="139.7" y="756.5" width="99.7" height="86.1" fill="#fff" fill-opacity="0.6" stroke="#7a8599" stroke-width="1"/>
<rect x="255.3" y="756.5" width="99.7" height="86.1" fill="#fff" fill-opacity="0.6" stroke="#7a8599" stroke-width="1"/>
<rect x="24" y="858.6" width="99.7" height="86.1" fill="#fff" fill-opacity="0.6" stroke="#7a8599" stroke-width="1"/>
<rect x="139.7" y="858.6" width="99.7" height="86.1" fill="#fff" fill-opacity="0.6" stroke="#7a8599" stroke-width="1"/>
<rect x="255.3" y="858.6" width="99.7" height="86.1" fill="#fff" fill-opacity="0.6" stroke="#7a8599" stroke-width="1"/>
<rect x="24" y="960.6" width="99.7" height="86.1" fill="#fff" fill-opacity="0.6" stroke="#7a8599" stroke-width="1"/>
<rect x="139.7" y="960.6" width="99.7" height="86.1" fill="#fff" fill-opacity="0.6" stroke="#7a8599" stroke-width="1"/>
<rect x="255.3" y="960.6" width="99.7" height="86.1" fill="#fff" fill-opacity="0.6" stroke="#7a8599" stroke-width="1"/>
<rect x="24" y="1062.7" width="99.7" height="86.1" fill="#fff" fill-opacity="0.6" stroke="#7a8599" stroke-width="1"/>
<rect x="139.7" y="1062.7" width="99.7" height="86.1" fill="#fff" fill-opacity="0.6" stroke="#7a8599" stroke-width="1"/>
<rect x="255.3" y="1062.7" width="99.7" height="86.1" fill="#fff" fill-opacity="0.6" stroke="#7a8599" stroke-width="1"/>
<rect x="24" y="1164.8" width="99.7" height="86.1" fill="#fff" fill-opacity="0.6" stroke="#7a8599" stroke-width="1"/>
<rect x="139.7" y="1164.8" width="99.7" height="86.1" fill="#fff" fill-opacity="0.6" stroke="#7a8599" stroke-width="1"/>
<rect x="255.3" y="1164.8" width="99.7" height="86.1" fill="#fff" fill-opacity="0.6" stroke="#7a8599" stroke-width="1"/>
<rect x="24" y="1266.9" width="99.7" height="86.1" fill="#fff" fill-opacity="0.6" stroke="#7a8599" stroke-width="1"/>
<rect x="139.7" y="1266.9" width="99.7" height="86.1" fill="#fff" fill-opacity="0.6" stroke="#7a8599" stroke-width="1"/>
<rect x="255.3" y="1266.9" width="99.7" height="86.1" fill="#fff" fill-opacity="0.6" stroke="#7a8599" stroke-width="1"/>
<rect x="24" y="1368.9" width="99.7" height="86.1" fill="#fff" fill-opacity="0.6" stroke="#7a8599" stroke-width="1"/>
<rect x="-691.6" y="-30" width="1762.3" height="1505" fill="#fff" fill-opacity="0.6" stroke="#7a8599" stroke-width="1"/>
<rect x="-1075.3" y="-220.7" width="2529.6" height="1748.6" fill="#fff" fill-opacity="0.6" stroke="#7a8599" stroke-width="1"/>
<polyline points="123.7,85 139.7,85" fill="none" stroke="#445" stroke-width="1.5"/>
<polyline points="73.8,128.1 73.8,136.1 305.2,136.1 305.2,128.1" fill="none" stroke="#445" stroke-width="1.5"/>
<polyline points="239.3,85 255.3,85" fill="none" stroke="#445" stroke-width="1.5"/>
<polyline points="305.2,128.1 305.2,136.1 73.8,136.1 73.8,144.1" fill="none" stroke="#445" stroke-width="1.5"/>
<polyline points="123.7,187.1 139.7,187.1" fill="none" stroke="#445" stroke-width="1.5"/>
<polyline points="239.3,187.1 255.3,187.1" fill="none" stroke="#445" stroke-width="1.5"/>
<polyline points="305.2,230.1 305.2,238.1 73.8,238.1 73.8,246.1" fill="none" stroke="#445" stroke-width="1.5"/>
<polyline points="123.7,289.2 139.7,289.2" fill="none" stroke="#445" stroke-width="1.5"/>
<polyline points="239.3,289.2 255.3,289.2" fill="none" stroke="#445" stroke-width="1.5"/>
<polyline points="305.2,332.2 305.2,340.2 73.8,340.2 73.8,348.2" fill="none" stroke="#445" stroke-width="1.5"/>
<polyline points="123.7,391.3 139.7,391.3" fill="none" stroke="#445" stroke-width="1.5"/>
<polyline points="239.3,391.3 255.3,391.3" fill="none" stroke="#445" stroke-width="1.5"/>
<polyline points="305.2,434.3 305.2,442.3 73.8,442.3 73.8,450.3" fill="none" stroke="#445" stroke-width="1.5"/>
<polyline points="123.7,493.3 139.7,493.3" fill="none" stroke="#445" stroke-width="1.5"/>
<polyline points="239.3,493.3 255.3,493.3" fill="none" stroke="#445" stroke-width="1.5"/>
<polyline points="305.2,536.4 305.2,544.4 73.8,544.4 73.8,552.4" fill="none" stroke="#445" stroke-width="1.5"/>
<polyline points="123.7,595.4 139.7,595.4" fill="none" stroke="#445" stroke-width="1.5"/>
<polyline points="239.3,595.4 255.3,595.4" fill="none" stroke="#445" stroke-width="1.5"/>
<polyline points="305.2,638.4 305.2,646.4 73.8,646.4 73.8,654.4" fill="none" stroke="#445" stroke-width="1.5"/>
<polyline points="123.7,697.5 139.7,697.5" fill="none" stroke="#445" stroke-width="1.5"/>
<polyline points="239.3,697.5 255.3,697.5" fill="none" stroke="#445" stroke-width="1.5"/>
<polyline points="305.2,740.5 305.2,748.5 73.8,748.5 73.8,756.5" fill="none" stroke="#445" stroke-width="1.5"/>
<polyline points="123.7,799.5 139.7,799.5" fill="none" stroke="#445" stroke-width="1.5"/>
<polyline points="239.3,799.5 255.3,799.5" fill="none" stroke="#445" stroke-width="1.5"/>
<polyline points="305.2,842.6 305.2,850.6 73.8,850.6 73.8,858.6" fill="none" stroke="#445" stroke-width="1.5"/>
<polyline points="123.7,901.6 139.7,901.6" fill="none" stroke="#445" stroke-width="1.5"/>
<polyline points="239.3,901.6 255.3,901.6" fill="none" stroke="#445" stroke-width="1.5"/>
<polyline points="305.2,944.6 305.2,952.6 73.8,952.6 73.8,960.6" fill="none" stroke="#445" stroke-width="1.5"/>
<polyline points="123.7,1003.7 139.7,1003.7" fill="none" stroke="#445" stroke-width="1.5"/>
<polyline points="239.3,1003.7 255.3,1003.7" fill="none" stroke="#445" stroke-width="1.5"/>
<polyline points="305.2,1046.7 305.2,1054.7 73.8,1054.7 73.8,1062.7" fill="none" stroke="#445" stroke-width="1.5"/>
<polyline points="123.7,1105.8 139.7,1105.8" fill="none" stroke="#445" stroke-width="1.5"/>
<polyline points="239.3,1105.8 255.3,1105.8" fill="none" stroke="#445" stroke-width="1.5"/>
<polyline points="305.2,1148.8 305.2,1156.8 73.8,1156.8 73.8,1164.8" fill="none" stroke="#445" stroke-width="1.5"/>
<polyline points="123.7,1207.8 139.7,1207.8" fill="none" stroke="#445" stroke-width="1.5"/>
<polyline points="239.3,1207.8 255.3,1207.8" fill="none" stroke="#445" stroke-width="1.5"/>
<polyline points="305.2,1250.9 305.2,1258.9 73.8,1258.9 73.8,1266.9" fill="none" stroke="#445" stroke-width="1.5"/>
<polyline points="123.7,1309.9 139.7,1309.9" fill="none" stroke="#445" stroke-width="1.5"/>
<polyline points="239.3,1309.9 255.3,1309.9" fill="none" stroke="#445" stroke-width="1.5"/>
<polyline points="305.2,1352.9 305.2,1360.9 73.8,1360.9 73.8,1368.9" fill="none" stroke="#445" stroke-width="1.5"/>
<polyline points="123.7,1412 131.7,1412 131.7,85 123.7,85" fill="none" stroke="#445" stroke-width="1.5"/>
<circle cx="131.7" cy="136.1" r="4" fill="none" stroke="#d7263d" stroke-width="2"/>
<circle cx="131.7" cy="187.1" r="4" fill="none" stroke="#d7263d" stroke-width="2"/>
<circle cx="131.7" cy="238.1" r="4" fill="none" stroke="#d7263d" stroke-width="2"/>
<circle cx="131.7" cy="289.2" r="4" fill="none" stroke="#d7263d" stroke-width="2"/>
<circle cx="131.7" cy="340.2" r="4" fill="none" stroke="#d7263d" stroke-width="2"/>
<circle cx="131.7" cy="391.3" r="4" fill="none" stroke="#d7263d" stroke-width="2"/>
<circle cx="131.7" cy="442.3" r="4" fill="none" stroke="#d7263d" stroke-width="2"/>
<circle cx="131.7" cy="493.3" r="4" fill="none" stroke="#d7263d" stroke-width="2"/>
<circle cx="131.7" cy="544.4" r="4" fill="none" stroke="#d7263d" stroke-width="2"/>
<circle cx="131.7" cy="595.4" r="4" fill="none" stroke="#d7263d" stroke-width="2"/>
<circle cx="131.7" cy="646.4" r="4" fill="none" stroke="#d7263d" stroke-width="2"/>
<circle cx="131.7" cy="697.5" r="4" fill="none" stroke="#d7263d" stroke-width="2"/>
<circle cx="131.7" cy="748.5" r="4" fill="none" stroke="#d7263d" stroke-width="2"/>
<circle cx="131.7" cy="799.5" r="4" fill="none" stroke="#d7263d" stroke-width="2"/>
<circle cx="131.7" cy="850.6" r="4" fill="none" stroke="#d7263d" stroke-width="2"/>
<circle cx="131.7" cy="901.6" r="4" fill="none" stroke="#d7263d" stroke-width="2"/>
<circle cx="131.7" cy="952.6" r="4" fill="none" stroke="#d7263d" stroke-width="2"/>
<circle cx="131.7" cy="1003.7" r="4" fill="none" stroke="#d7263d" stroke-width="2"/>
<circle cx="131.7" cy="1054.7" r="4" fill="none" stroke="#d7263d" stroke-width="2"/>
<circle cx="131.7" cy="1105.8" r="4" fill="none" stroke="#d7263d" stroke-width="2"/>
<circle cx="131.7" cy="1156.8" r="4" fill="none" stroke="#d7263d" stroke-width="2"/>
<circle cx="131.7" cy="1207.8" r="4" fill="none" stroke="#d7263d" stroke-width="2"/>
<circle cx="131.7" cy="1258.9" r="4" fill="none" stroke="#d7263d" stroke-width="2"/>
<circle cx="131.7" cy="1309.9" r="4" fill="none" stroke="#d7263d" stroke-width="2"/>
<text x="24" y="14">dense-default-40 · component @ focus (zoom 5.27)</text>
<text x="24" y="1473" font-size="10" fill="#555">edge-crossing:24  shared-corridor:0  label-clearance:0  container-border-run:0  endpoint-crowding:0  short-route:0</text>
</svg>
