<svg xmlns="http://www.w3.org/2000/svg" width="2016.1" height="769.9" viewBox="0 0 2016.1 769.9" font-family="sans-serif" font-size="11">
<rect width="100%" height="100%" fill="#f1f2f5"/>
<rect x="-4156.6" y="-43.4" width="2529.6" height="1001.3" fill="#fff" fill-opacity="0.6" stroke="#7a8599" stroke-width="1"/>
<rect x="1580.3" y="77.4" width="197.9" height="99" fill="#fff" fill-opacity="0.6" stroke="#7a8599" stroke-width="1"/>
<rect x="1794.2" y="77.4" width="197.9" height="99" fill="#fff" fill-opacity="0.6" stroke="#7a8599" stroke-width="1"/>
<rect x="1580.3" y="192.4" width="197.9" height="99" fill="#fff" fill-opacity="0.6" stroke="#7a8599" stroke-width="1"/>
<rect x="1794.2" y="192.4" width="197.9" height="99" fill="#fff" fill-opacity="0.6" stroke="#7a8599" stroke-width="1"/>
<rect x="24" y="59.7" width="197.9" height="99" fill="#fff" fill-opacity="0.6" stroke="#7a8599" stroke-width="1"/>
<rect x="237.9" y="42" width="197.9" height="134.4" fill="#fff" fill-opacity="0.6" stroke="#7a8599" stroke-width="1"/>
<rect x="24" y="210.1" width="197.9" height="99" fill="#fff" fill-opacity="0.6" stroke="#7a8599" stroke-width="1"/>
<rect x="237.9" y="192.4" width="197.9" height="134.4" fill="#fff" fill-opacity="0.6" stroke="#7a8599" stroke-width="1"/>
<rect x="802.1" y="59.7" width="197.9" height="134.4" fill="#fff" fill-opacity="0.6" stroke="#7a8599" stroke-width="1"/>
<rect x="1016" y="59.7" width="197.9" height="134.4" fill="#fff" fill-opacity="0.6" stroke="#7a8599" stroke-width="1"/>
<rect x="802.1" y="210.1" width="197.9" height="99" fill="#fff" fill-opacity="0.6" stroke="#7a8599" stroke-width="1"/>
<rect x="1016" y="210.1" width="197.9" height="99" fill="#fff" fill-opacity="0.6" stroke="#7a8599" stroke-width="1"/>
<rect x="24" y="496.6" width="197.9" height="99" fill="#fff" fill-opacity="0.6" stroke="#7a8599" stroke-width="1"/>
<rect x="237.9" y="496.6" width="197.9" height="99" fill="#fff" fill-opacity="0.6" stroke="#7a8599" stroke-width="1"/>
<rect x="24" y="611.5" width="197.9" height="99" fill="#fff" fill-opacity="0.6" stroke="#7a8599" stroke-width="1"/>
<rect x="695.2" y="461.2" width="197.9" height="134.4" fill="#fff" fill-opacity="0.6" stroke="#7a8599" stroke-width="1"/>
<rect x="909.1" y="478.9" width="197.9" height="99" fill="#fff" fill-opacity="0.6" stroke="#7a8599" stroke-width="1"/>
<rect x="1123" y="461.2" width="197.9" height="134.4" fill="#fff" fill-opacity="0.6" stroke="#7a8599" stroke-width="1"/>
<rect x="695.2" y="629.3" width="197.9" height="99" fill="#fff" fill-opacity="0.6" stroke="#7a8599" stroke-width="1"/>
<rect x="909.1" y="611.5" width="197.9" height="134.4" fill="#fff" fill-opacity="0.6" stroke="#7a8599" stroke-width="1"/>
<rect x="-138" y="-30" width="735.8" height="376.8" fill="#fff" fill-opacity="0.6" stroke="#7a8599" stroke-width="1"/>
<rect x="640.2" y="-12.3" width="735.8" height="341.3" fill="#fff" fill-opacity="0.6" stroke="#7a8599" stroke-width="1"/>
<rect x="1418.3" y="0.7" width="735.8" height="315.3" fill="#fff" fill-opacity="0.6" stroke="#7a8599" stroke-width="1"/>
<rect x="-138" y="419.9" width="735.8" height="315.3" fill="#fff" fill-opacity="0.6" stroke="#7a8599" stroke-width="1"/>
<rect x="640.2" y="389.2" width="735.8" height="376.8" fill="#fff" fill-opacity="0.6" stroke="#7a8599" stroke-width="1"/>
<rect x="4170" y="-43.4" width="2529.6" height="1001.3" fill="#fff" fill-opacity="0.6" stroke="#7a8599" stroke-width="1"/>
<rect x="-4156.6" y="1326.8" width="2529.6" height="1001.3" fill="#fff" fill-opacity="0.6" stroke="#7a8599" stroke-width="1"/>
<rect x="-256.8" y="-359.6" width="2529.6" height="1317.5" fill="#fff" fill-opacity="0.6" stroke="#7a8599" stroke-width="1"/>
<polyline points="1778.2,126.9 1794.2,126.9" fill="none" stroke="#445" stroke-width="1.5"/>
<polyline points="1679.2,176.4 1679.2,192.4" fill="none" stroke="#445" stroke-width="1.5"/>
<polyline points="1778.2,126.9 1786.2,126.9 1786.2,241.9 1794.2,241.9" fill="none" stroke="#445" stroke-width="1.5"/>
<polyline points="1778.2,241.9 1786.2,241.9 1786.2,126.9 1794.2,126.9" fill="none" stroke="#445" stroke-width="1.5"/>
<polyline points="221.9,109.2 237.9,109.2" fill="none" stroke="#445" stroke-width="1.5"/>
<polyline points="118,210.1 118,166.7 128,166.7 128,158.7" fill="none" stroke="#445" stroke-width="1.5"/>
<polyline points="128,210.1 128,166.7 118,166.7 118,158.7" fill="none" stroke="#445" stroke-width="1.5"/>
<polyline points="331.9,192.4 331.9,184.4 341.9,184.4 341.9,176.4" fill="none" stroke="#445" stroke-width="1.5"/>
<polyline points="341.9,192.4 341.9,184.4 331.9,184.4 331.9,176.4" fill="none" stroke="#445" stroke-width="1.5"/>
<polyline points="896.1,194.1 896.1,202.1 906.1,202.1 906.1,210.1" fill="none" stroke="#445" stroke-width="1.5"/>
<polyline points="906.1,194.1 906.1,202.1 896.1,202.1 896.1,210.1" fill="none" stroke="#445" stroke-width="1.5"/>
<polyline points="1016,126.9 1000,126.9" fill="none" stroke="#445" stroke-width="1.5"/>
<polyline points="1016,254.6 1008,254.6 1008,131.9 1000,131.9" fill="none" stroke="#445" stroke-width="1.5"/>
<polyline points="1016,264.6 1008,264.6 1008,121.9 1000,121.9" fill="none" stroke="#445" stroke-width="1.5"/>
<polyline points="1115,210.1 1115,194.1" fill="none" stroke="#445" stroke-width="1.5"/>
<polyline points="221.9,546.1 229.9,546.1 229.9,354.8 1572.3,354.8 1572.3,241.9 1580.3,241.9" fill="none" stroke="#445" stroke-width="1.5"/>
<polyline points="789.1,629.3 789.1,603.5 799.1,603.5 799.1,595.5" fill="none" stroke="#445" stroke-width="1.5"/>
<polyline points="799.1,629.3 799.1,603.5 789.1,603.5 789.1,595.5" fill="none" stroke="#445" stroke-width="1.5"/>
<polyline points="893.1,678.7 901.1,678.7 901.1,528.4 909.1,528.4" fill="none" stroke="#445" stroke-width="1.5"/>
<polyline points="893.1,673.7 901.1,673.7 901.1,585.8 1115,585.8 1115,533.4 1123,533.4" fill="none" stroke="#445" stroke-width="1.5"/>
<polyline points="893.1,683.7 901.1,683.7 901.1,603.5 1216.9,603.5 1216.9,595.5" fill="none" stroke="#445" stroke-width="1.5"/>
<polyline points="893.1,673.7 901.1,673.7 901.1,683.7 909.1,683.7" fill="none" stroke="#445" stroke-width="1.5"/>
<polyline points="893.1,683.7 901.1,683.7 901.1,673.7 909.1,673.7" fill="none" stroke="#445" stroke-width="1.5"/>
<polyline points="1786.2,126.9 1786.2,241.9" fill="none" stroke="#f46036" stroke-width="4" stroke-opacity="0.75"/>
<circle cx="1000" cy="126.9" r="4" fill="none" stroke="#e2a400" stroke-width="2"/>
<circle cx="1000" cy="131.9" r="4" fill="none" stroke="#e2a400" stroke-width="2"/>
<circle cx="1000" cy="121.9" r="4" fill="none" stroke="#e2a400" stroke-width="2"/>
<circle cx="1000" cy="126.9" r="4" fill="none" stroke="#e2a400" stroke-width="2"/>
<circle cx="893.1" cy="673.7" r="4" fill="none" stroke="#e2a400" stroke-width="2"/>
<circle cx="893.1" cy="678.7" r="4" fill="none" stroke="#e2a400" stroke-width="2"/>
<circle cx="893.1" cy="678.7" r="4" fill="none" stroke="#e2a400" stroke-width="2"/>
<circle cx="893.1" cy="683.7" r="4" fill="none" stroke="#e2a400" stroke-width="2"/>
<circle cx="893.1" cy="673.7" r="4" fill="none" stroke="#e2a400" stroke-width="2"/>
<circle cx="893.1" cy="678.7" r="4" fill="none" stroke="#e2a400" stroke-width="2"/>
<circle cx="893.1" cy="678.7" r="4" fill="none" stroke="#e2a400" stroke-width="2"/>
<circle cx="893.1" cy="683.7" r="4" fill="none" stroke="#e2a400" stroke-width="2"/>
<text x="24" y="14">golden-okie · component @ focus (zoom 5.27)</text>
<text x="24" y="763.9" font-size="10" fill="#555">edge-crossing:0  shared-corridor:1  label-clearance:0  container-border-run:0  endpoint-crowding:6  short-route:0</text>
</svg>
